Coordinates
version=1
nRows=16
nColumns=22
inDegrees=yes

Units are S.I. units (second, meters, Newtons, ...)
If the header above contains a line with 'inDegrees', this indicates whether rotational values are in degrees (yes) or radians (no).

endheader
time	pelvis_tilt	pelvis_list	pelvis_rotation	pelvis_tx	pelvis_ty	pelvis_tz	hip_flexion_r	hip_adduction_r	hip_rotation_r	knee_angle_r	ankle_angle_r	subtalar_angle_r	hip_flexion_l	hip_adduction_l	hip_rotation_l	knee_angle_l	ankle_angle_l	subtalar_angle_l	lumbar_extension	lumbar_bending	lumbar_rotation
      1.53000000	     -7.20732677	     -2.71044313	     -0.60066951	     -1.13724440	      0.95326962	      0.42650996	      8.68968081	      2.58939376	     -5.58274983	    -11.27468539	     10.94268090	     -2.07347112	      7.84563015	     -4.41980020	     -8.52687585	    -12.81636529	     11.24160215	     -4.11922336	     -1.69790770	      1.80247228	     -0.81949817
      1.54000000	     -7.22164783	     -2.71311306	     -0.62019106	     -1.13707017	      0.95322092	      0.42665214	      8.71263541	      2.60143457	     -5.57123388	    -11.30740997	     10.94946353	     -2.07825655	      7.83821017	     -4.43155921	     -8.52094554	    -12.80567876	     11.25008957	     -4.11682245	     -1.70312597	      1.80958207	     -0.82305723
      1.55000000	     -7.26007473	     -2.70860003	     -0.65852890	     -1.13693269	      0.95312707	      0.42683154	      8.77487449	      2.60948882	     -5.53365625	    -11.35931065	     10.99185140	     -2.10139712	      7.86084786	     -4.44057335	     -8.54669001	    -12.80328382	     11.28742898	     -4.11158270	     -1.68476530	      1.80449177	     -0.77523987
      1.56000000	     -7.27349582	     -2.71042106	     -0.67597685	     -1.13678947	      0.95308072	      0.42696711	      8.80385910	      2.62070010	     -5.51432720	    -11.40131309	     11.00202300	     -2.10941034	      7.85749162	     -4.45140274	     -8.55050189	    -12.79485285	     11.29550372	     -4.10946581	     -1.69604806	      1.81300259	     -0.78520323
      1.57000000	     -7.28819173	     -2.71219597	     -0.70055599	     -1.13664391	      0.95302853	      0.42712051	      8.83939313	      2.63287938	     -5.49263108	    -11.45329150	     11.03073189	     -2.12322673	      7.85736005	     -4.46376160	     -8.55781382	    -12.79373918	     11.31400475	     -4.10889031	     -1.70444606	      1.81875825	     -0.77418949
      1.58000000	     -7.30084967	     -2.70931138	     -0.71942197	     -1.13647457	      0.95298307	      0.42726928	      8.86449389	      2.64017643	     -5.47547830	    -11.49346543	     11.05526130	     -2.13680432	      7.85930450	     -4.47150081	     -8.56937017	    -12.80078519	     11.32797037	     -4.10748187	     -1.70866325	      1.81895508	     -0.77470112
      1.59000000	     -7.31135045	     -2.70584315	     -0.72116254	     -1.13630301	      0.95295305	      0.42740783	      8.86845401	      2.64657023	     -5.47457068	    -11.49802507	     11.05877415	     -2.13862995	      7.85951142	     -4.47700361	     -8.56999796	    -12.80057298	     11.32965853	     -4.10719538	     -1.71846295	      1.81275038	     -0.77666701
      1.60000000	     -7.31517014	     -2.70817609	     -0.72382960	     -1.13613376	      0.95292646	      0.42753915	      8.88515570	      2.65723261	     -5.46181433	    -11.54335527	     11.08598759	     -2.15187166	      7.85594517	     -4.48871006	     -8.57239051	    -12.80744293	     11.33918100	     -4.10370729	     -1.73385362	      1.81893825	     -0.79492091
      1.61000000	     -7.32373615	     -2.70536688	     -0.71979374	     -1.13592771	      0.95290661	      0.42768119	      8.88293594	      2.66458132	     -5.46257468	    -11.54640085	     11.08922968	     -2.15359344	      7.85362721	     -4.49466668	     -8.57195266	    -12.80891068	     11.34011022	     -4.10303741	     -1.73690874	      1.81103616	     -0.79711156
      1.62000000	     -7.32677964	     -2.71519083	     -0.69467538	     -1.13570211	      0.95289380	      0.42779567	      8.86224888	      2.68349279	     -5.47479195	    -11.53318283	     11.12595982	     -2.17445377	      7.84921390	     -4.51279233	     -8.55822793	    -12.81222662	     11.34336445	     -4.09032295	     -1.74278570	      1.82087375	     -0.84165363
      1.63000000	     -7.33077064	     -2.72455932	     -0.66073936	     -1.13544527	      0.95289805	      0.42791104	      8.81479375	      2.70316972	     -5.50779227	    -11.47073202	     11.12136360	     -2.19365781	      7.84176513	     -4.52817486	     -8.52600785	    -12.80907524	     11.34287800	     -4.07318447	     -1.74114593	      1.82528435	     -0.87059305
      1.64000000	     -7.33405186	     -2.74132582	     -0.62518723	     -1.13518213	      0.95291208	      0.42803636	      8.75949462	      2.73150966	     -5.53151380	    -11.39744778	     11.10719353	     -2.20849139	      7.82622914	     -4.55253874	     -8.50070868	    -12.79239545	     11.33678086	     -4.05608292	     -1.73912805	      1.83820592	     -0.91862888
      1.65000000	     -7.31423079	     -2.77317988	     -0.57797265	     -1.13492181	      0.95297310	      0.42816225	      8.66081579	      2.77682014	     -5.57045975	    -11.29192069	     11.04904653	     -2.22964269	      7.79161547	     -4.59161440	     -8.44056524	    -12.78395198	     11.33426378	     -4.02794977	     -1.76661885	      1.86641795	     -0.97570420
      1.66000000	     -7.31625038	     -2.79371203	     -0.55061902	     -1.13465331	      0.95300068	      0.42832318	      8.57751978	      2.81242701	     -5.60105306	    -11.17172722	     11.01424641	     -2.23974293	      7.76938857	     -4.62256307	     -8.42345822	    -12.76097228	     11.33014253	     -4.00785471	     -1.76603891	      1.88085334	     -1.00879331
      1.67000000	     -7.32986145	     -2.81530789	     -0.53136160	     -1.13440319	      0.95301370	      0.42850322	      8.50183906	      2.85091869	     -5.63049400	    -11.04085874	     10.97139043	     -2.24013215	      7.75946146	     -4.65596398	     -8.41122161	    -12.73898116	     11.32461801	     -3.99141541	     -1.75590456	      1.89701592	     -1.03342307
      1.68000000	     -7.35121670	     -2.83728317	     -0.52042158	     -1.13418887	      0.95301231	      0.42870883	      8.43539116	      2.89083700	     -5.65643813	    -10.90786703	     10.92514605	     -2.23482876	      7.75979705	     -4.69297266	     -8.40593773	    -12.71813506	     11.31945086	     -3.97645196	     -1.74411613	      1.91441126	     -1.05384463
